<?xml version="1.0" encoding="UTF-8"?>
<svg width="35px" height="35px" viewBox="0 0 35 35" version="1.1" xmlns="http://www.w3.org/2000/svg" xmlns:xlink="http://www.w3.org/1999/xlink">
    <title>Sin título-1-03</title>
    <g id="LANDING---VENDE-TU-PROPIEDAD" stroke="none" stroke-width="1" fill="none" fill-rule="evenodd">
        <g id="Desktop-HD" transform="translate(-180.000000, -1994.000000)">
            <g id="Sin-título-1-03" transform="translate(180.000000, 1994.000000)">
                <path d="M27.748,4.71450671 C28.2072976,4.71589704 28.6399241,4.49893419 28.9135,4.13 C29.2054959,3.73742754 29.2935778,3.22946288 29.1508,2.7615 C29.0626,2.4577 28.5432,1.9376 28.2408,1.8515 C28.0867262,1.80733094 27.9271791,1.78517816 27.7669,1.7857 C27.5726187,1.78443814 27.3795908,1.81688577 27.1964,1.8816 L27.1922,1.8816 C26.8996,1.9831 26.4488,2.4668 26.3613,2.7741 C26.1814,3.3691 26.2997,3.843 26.7316,4.2686 C27.0648,4.6018 27.3217,4.71450671 27.748,4.71450671 Z M27.769,2.5445 C27.9601,2.5445 28.1568,2.737 28.2079,2.7909 C28.3234,2.9001 28.455,3.0821 28.455,3.2445 C28.455,3.5392 28.0294,3.9445 27.72,3.9445 C27.3966,3.9445 27.055,3.5882 27.055,3.2515 C27.055,2.94 27.4554,2.5445 27.769,2.5445 L27.769,2.5445 Z" id="Shape" fill="#CC9964" fill-rule="nonzero"></path>
                <path d="M9.6894,11.1174 L9.5571,11.27 C9.3877,11.4604 9.3933,11.5171 9.4906,11.6998 L9.4906,11.7061 C9.5844,11.893 9.6747,11.9406 11.2763,11.9161 L12.7148,11.8965 L13.0004,11.7215 C13.1976338,11.6088162 13.3549334,11.4375725 13.4505,11.2315 L13.6115,10.9032 L13.6115,8.1585 C13.6115,6.7886 13.6024,5.3585 13.538,5.1422 C13.4491,4.8482 13.0585,4.4569 12.7638,4.368 C12.6896,4.3463 12.3746,4.298 11.0705,4.298 C9.7524,4.298 9.6747,4.3071 9.5746,4.3904 C9.50099724,4.46849287 9.4503724,4.56538251 9.4283,4.6704 C9.4087,4.7971 9.4087,4.7971 9.5389,4.9329 L9.674,5.0673 L11.018,5.0673 C11.7222,5.0673 12.0757,5.0673 12.2822,5.0883 C12.5041,5.1093 12.6511,5.1583 12.747,5.3382 C12.775,5.3942 12.8436,5.5314 12.831,6.5198 L12.8044,7.6867 L11.0544,7.7273 C9.7118,7.7595 9.6222,7.7714 9.5417,7.8519 C9.47506882,7.92330035 9.44087474,8.01904378 9.4472,8.1165 C9.44729858,8.21929048 9.48925417,8.31760809 9.5634,8.3888 C9.6859,8.4931 9.6901,8.4973 11.1034,8.4973 L12.8583,8.4973 L12.8065,11.0467 L9.6894,11.1174 Z" id="Path" fill="#CC9964" fill-rule="nonzero"></path>
                <path d="M16.2771,11.8566 C16.5886,11.9434 18.41,11.9441 18.7138,11.8566 C18.9728,11.7866 19.3844,11.4296 19.4922,11.1874 C19.5622,10.9893 19.5622,10.0765 19.5622,9.7748 C19.5622,8.6072 19.5475,8.5365 19.4334,8.3349 C19.3280342,8.178112 19.1982997,8.03916145 19.0491,7.9233 L18.8055,7.7574 L16.2022,7.7126 L16.2022,6.4295 C16.2022,5.4495 16.2022,5.2192 16.4766,5.1212 C16.6404,5.0659 17.913,5.0645 18.0572,5.0645 L19.3291,5.0645 L19.4376,4.935 C19.6021,4.7418 19.6,4.5948 19.4306,4.4261 L19.2997,4.2945 L17.871,4.2945 C16.3891,4.2945 16.3891,4.2945 16.0769,4.4506 C15.89409,4.53766533 15.7365195,4.66993778 15.6191,4.8349 L15.47,5.0617 L15.4497,7.9646 C15.4301,10.668 15.4812,11.0803 15.491,11.1335 C15.5666,11.3617 15.9873,11.7768 16.2771,11.8566 Z M16.2071,8.4826 L18.7572,8.5344 L18.809,11.0845 L16.205,11.0845 L16.2071,8.4826 Z" id="Shape" fill="#CC9964" fill-rule="nonzero"></path>
                <path d="M22.2831,11.718 C22.6051,11.8734 22.6394,11.8895 23.485,11.8895 C24.3019,11.8895 24.381,11.8657 24.619,11.7495 C24.818549,11.6380164 24.9996561,11.496342 25.1559,11.3295 C25.5591,10.8668 25.592,10.829 25.571,7.9583 C25.5507,5.6742 25.5423,5.5237 25.4261,5.2738 C25.2588683,4.92343009 24.983223,4.63624834 24.64,4.4548 C24.4489,4.3561 24.3194,4.3295 23.59,4.3148 C23.0244,4.3015 22.68,4.3246 22.4798,4.3848 C22.1006859,4.5221549 21.7820033,4.78854971 21.5796,5.1373 L21.42,5.411 L21.3997,7.9646 C21.3787,10.85 21.3927,10.8675 21.7497,11.3169 C21.9014512,11.4821208 22.0822486,11.6180747 22.2831,11.718 Z M22.155,8.1795 C22.155,5.8037 22.155,5.5552 22.5253,5.2752 C22.603,5.2129 22.7444,5.1464 23.4598,5.1352 L23.464,5.1352 C24.0849,5.1352 24.2403,5.1443 24.4972,5.3613 L24.4972,5.3613 L24.78,5.6 L24.78,10.57 L24.5469,10.8227 C24.3068,11.0831 24.1633,11.0831 23.471,11.0831 C22.7787,11.0831 22.631,11.0747 22.4014,10.8367 L22.155,10.5994 L22.155,8.1795 Z" id="Shape" fill="#CC9964" fill-rule="nonzero"></path>
                <path d="M33.271,19.7302 L33.25,11.9 L33.1135,11.5584 C32.6039,10.2949 30.9085,9.1497 28.3388,8.3342 C27.7326,8.141 27.7025,8.1536 27.6024,8.1942 L27.5884,8.2005 C27.4421,8.26 27.4197,8.2705 27.384,8.6128 C27.335,9.0909 27.335,10.0275 27.335,11.8944 L27.335,15.9026 L26.3634,16.1364 C23.45,16.821 21.133,17.0625 17.5,17.0625 C13.8859,17.0625 11.4478,16.8028 8.5043,16.1042 L7.6643,15.9054 L7.6643,8.407 L7.5327,8.2761 C7.3724,8.1193 7.3122,8.0598 6.2104,8.4721 L6.2104,8.4721 C3.9389,9.31 2.5585,10.2676 1.9901,11.41 L1.75,11.9042 L1.729,19.7232 C1.7136,25.137 1.7409,27.7893 1.7752,28.0161 C1.8648,28.5761 2.1133,29.0451 2.5802,29.5442 C4.27,31.3467 8.4413,32.6452 14.0343,33.11 C15.5834,33.2395 19.0603,33.2577 20.5618,33.145 C26.3816,32.6977 30.7034,31.3859 32.4198,29.547 C32.8867,29.0479 33.1352,28.5761 33.2248,28.0168 C33.2584,27.79 33.2864,25.1398 33.271,19.7302 Z M28.1575,9.3478 L28.2198,9.1966 L28.385,9.1966 C28.4361,9.1966 28.455,9.1966 29.0493,9.4311 C30.5193,10.0093 31.605,10.7184 32.1125,11.4275 C32.3351,11.7376 32.4065,11.9308 32.4303,12.2885 C32.4548,12.6819 32.4156,12.8282 32.186,13.2083 C31.9799951,13.5142282 31.7299681,13.7880787 31.444,14.021 C31.094,14.3087 30.324,14.7301 29.7689,15.001 C28.9478,15.4077 28.5908,15.5218 28.4123,15.5218 C28.335426,15.5261565 28.2613355,15.4923838 28.2142,15.4315 C28.1253,15.3426 28.1106,15.3286 28.1071,12.3767 C28.1029,9.4787 28.1358,9.3996 28.1575,9.3478 Z M2.6719,11.767 C2.9141,11.1818 3.7219,10.4846 4.7901,9.947 C5.1667,9.758 6.2713,9.2694 6.5401,9.2071 L6.5401,9.2071 L6.6563,9.1777 L6.7515,9.2519 C6.86,9.3366 6.8642,9.3394 6.8796,10.3019 C6.8887,10.8409 6.8936,11.5619 6.8936,12.3319 C6.8936,13.0893 6.8887,13.8208 6.8803,14.3927 C6.8663,15.3517 6.8663,15.3517 6.7795,15.4385 C6.73782727,15.4886259 6.6752397,15.5165575 6.6101,15.5141 C6.4939,15.5141 6.2909,15.4553 5.8723,15.2901 C4.1391,14.5978 3.0359,13.7844 2.681,12.9381 C2.51537798,12.5659548 2.51208112,12.141674 2.6719,11.767 L2.6719,11.767 Z M32.445,21.3815 C32.445,27.5534 32.4275,28.0889 32.3281,28.3283 C32.2581,28.497 32.0418,28.7945 31.8381,29.0066 C30.2589,30.7006 25.8706,31.9879 20.3875,32.3666 C19.7246,32.4128 18.6109,32.4366 17.4979,32.4366 C16.3849,32.4366 15.2726,32.4135 14.6139,32.3666 C9.9337,32.0397 5.9374,31.0296 3.92,29.6625 C3.4048,29.3125 2.8322,28.7049 2.6705,28.3325 C2.5697,28.0889 2.5522,27.5527 2.5522,21.3745 L2.5522,14.28 L3.3824,14.8869 C3.77942652,15.1507935 4.19305073,15.3888203 4.6207,15.5995 C6.7711,16.6495 9.6026,17.3201 13.5317,17.7177 C15.2733,17.8927 19.7211,17.8927 21.4627,17.7177 C26.0995,17.2459 29.4721,16.3177 31.4867,14.9653 L32.4422,14.3122 L32.445,21.3815 Z" id="Shape" fill="#CC9964" fill-rule="nonzero"></path>
                <path d="M10.1822,22.6275 C10.3783615,22.6715373 10.578968,22.6926785 10.78,22.6905 C11.5094,22.6905 11.9938,22.4042 12.3046,21.7889 C12.5193351,21.3776045 12.5595315,20.8972009 12.4161314,20.4559396 C12.2727313,20.0146782 11.9577994,19.6496833 11.5423,19.4432 C11.2973,19.3123 10.5441,19.2416 10.2991,19.3242 L10.2942,19.3242 C9.58466417,19.5461059 9.09277263,20.1920845 9.06756485,20.9350838 C9.04235707,21.678083 9.48933562,22.3559148 10.1822,22.6254 L10.1822,22.6275 Z M9.9638,20.5275 C10.2109,20.0802 10.7576,19.9255 11.2343,20.1684 L11.2343,20.1684 C11.6111379,20.3637622 11.8008559,20.7953633 11.69,21.2051 C11.607906,21.5790389 11.3048021,21.8643093 10.9265776,21.9236052 C10.5483532,21.9829011 10.1724908,21.8040754 9.9799,21.4732 C9.80579444,21.1837826 9.79965426,20.8233802 9.9638,20.5282 L9.9638,20.5275 Z" id="Shape" fill="#CC9964" fill-rule="nonzero"></path>
                <path d="M20.3756,19.8359 C20.2286,19.7127 20.1229,19.7253 20.0312,19.7596 C19.8128,19.9115 18.4212,21.6146 15.1004,25.7152 C15.0368502,25.8000641 14.9382583,25.8515481 14.8323,25.8552 L14.8323,25.8552 C14.6223,25.8552 14.4984,25.7089 13.8194,24.8976 C13.377,24.3621 13.0494,24.0016 12.9654,23.9295 C12.8572345,23.882081 12.7329376,23.889102 12.6308,23.9484 C12.3235,24.2494 8.603,28.6328 8.3713,28.9674 C8.3013,29.0696 8.2313,29.2278 8.4294,29.435 C8.5379,29.5428 8.6044,29.5631 8.6947,29.5631 C8.785,29.5631 8.8158,29.5631 9.0447,29.3223 C9.3303,29.0227 9.828,28.4228 10.8367,27.202 C12.4026,25.312 12.5055,25.1965 12.53,25.172 C12.5851945,25.1159726 12.6614077,25.0857414 12.74,25.0887 C12.95,25.095 13.0585,25.1762 14.7196,27.2552 C15.8746,28.6902 16.4738,29.4133 16.5585,29.4952 L16.562,29.4952 C16.6852,29.6072 16.912,29.5729 17.0646,29.4196 C17.1969,29.2838 17.199,29.2509 17.1507,29.1312 C17.0618,28.9114 16.7895,28.5502 16.3184,27.9608 C15.3587,26.761 15.3832,26.7113 15.4574,26.5608 C15.47,26.5349 15.5141,26.4404 17.731,23.7258 C18.3029,23.03 18.8433,22.372 19.25,21.8813 C20.0165,20.9545 20.0165,20.9545 20.1467,20.9545 L20.1768,20.9545 L20.2062,20.9622 C20.3091,20.9881 20.3091,20.9881 21.1463,22.0549 C21.6636,22.7136 22.3272,23.5676 23.0146,24.4587 C25.8314,28.1183 26.1933,28.5887 26.3599,28.6237 C26.5004803,28.6484435 26.6433987,28.5948156 26.733,28.4837 C26.8156643,28.3986 26.8477925,28.2764599 26.8177,28.1617 C26.5139,27.6738 20.72,20.1817 20.3756,19.8359 Z" id="Path" fill="#CC9964" fill-rule="nonzero"></path>
                <rect id="Rectangle" x="0" y="0" width="35" height="35"></rect>
            </g>
        </g>
    </g>
</svg>