<?xml version="1.0" encoding="UTF-8"?>
<svg width="35px" height="35px" viewBox="0 0 35 35" version="1.1" xmlns="http://www.w3.org/2000/svg" xmlns:xlink="http://www.w3.org/1999/xlink">
    <title>Sin título-1_Mesa de trabajo 1</title>
    <g id="LANDING---VENDE-TU-PROPIEDAD" stroke="none" stroke-width="1" fill="none" fill-rule="evenodd">
        <g id="Desktop-HD" transform="translate(-180.000000, -2345.000000)">
            <g id="Sin-título-1_Mesa-de-trabajo-1" transform="translate(180.000000, 2345.000000)">
                <path d="M30.2694,19.0785 L30.2491,6.258 L30.0986,5.978 C29.9009792,5.6095603 29.5990397,5.30762079 29.2306,5.11 C28.9779,4.97 28.8274,4.9595 27.5156,4.9259 C26.292,4.8986 26.0456044,4.8713 25.8888,4.7684 C25.5269,4.529 25.4723,4.3582 25.431,3.3404 C25.3897,2.3226 25.3694,2.2603 25.0145,2.2603 C24.6596,2.2603 24.6113,2.4248 24.6113,3.402 C24.6113,4.6522 24.8094,5.124 25.4926,5.5272 C25.7999,5.705 25.8342,5.7113 27.2426,5.7456 C28.8967,5.7869 29.0402,5.8275 29.3132,6.3609 L29.4637,6.6612 L29.4637,31.3012 L8.4147,31.3012 L8.4147,0.8253 L16.4647,0.8393 C24.0429,0.8596 24.5217,0.8666 24.7814,0.9793 C25.1433,1.1431 25.2665,1.2663 26.4964,2.674 C27.0774,3.3369 27.6038,3.8969 27.6717,3.9109 C28.007,3.9998 28.3213,3.6442 28.1617,3.3509 C28.0021,3.0576 25.8517,0.6447 25.5787,0.4536 C25.3587512,0.319462547 25.1238083,0.211623751 24.8787,0.1323 C24.4741,0.0119 24.1535,0.0056 16.1441,0.0056 L7.8204,0.0056 L7.6902,0.1491 C7.5607,0.2926 7.5607,0.6615 7.5502,16.0237 C7.5369,28.6118 7.5502,31.7828 7.6202,31.9193 L7.7091,32.0901 L18.8685,32.1111 C29.2152,32.1244 30.0489,32.1174 30.1651,32.0082 C30.2813,31.899 30.2834,31.4545 30.2694,19.0785 Z" id="Path" fill="#CC9964" fill-rule="nonzero"></path>
                <path d="M27.1194,33.054 C26.9689,32.9994 26.9094,33.0127 26.7638,33.1499 C26.6182,33.2871 26.593,33.3683 26.593,33.7442 L26.593,34.1747 L16.093,34.1607 L5.579,34.1404 L5.558,18.9147 L5.5447,3.6953 L5.9549,3.6953 C6.4127,3.6953 6.6381,3.5553 6.6381,3.2648 C6.6381,2.9505 6.4533,2.8756 5.6679,2.8756 C5.0596,2.8756 4.9364,2.8959 4.8405,2.9988 C4.7313,3.115 4.7243,4.3176 4.7243,18.9217 C4.7243,34.6325 4.7243,34.7214 4.8643,34.8579 C5.0043,34.9944 5.0897,34.9944 16.0923,34.9944 L27.1873,34.9944 L27.3175,34.8509 C27.4197,34.7347 27.454,34.5849 27.4673,34.0809 C27.4883,33.3753 27.4127,33.1562 27.1194,33.054 Z" id="Path" fill="#CC9964" fill-rule="nonzero"></path>
                <path d="M23.3198,7.0854 L20.3,4.1258 C19.4733,3.3131 19.0498,2.9442 18.9469,2.9442 C18.844,2.9442 18.5577,3.1696 18.1342,3.5742 C17.7716,3.9242 16.3842,5.2619 15.0654,6.5604 C13.0907,8.4875 12.6532,8.9453 12.6532,9.0958 C12.655733,9.20858035 12.7035284,9.31560056 12.7858225,9.39275951 C12.8681166,9.46991846 12.9779904,9.51072881 13.0907,9.506 C13.2748,9.506 13.7669,9.0412 17.7513,5.1114 L18.9196,3.9564 L20.7585,5.754 C21.77,6.7368 23.0461,7.987 23.59,8.5274 C24.444,9.3674 24.6148,9.5074 24.7996,9.5074 C25.0663,9.5074 25.2644,9.254 25.1895,9.0174 C25.1643,8.9306 24.3243,8.0626 23.3198,7.0854 Z" id="Path" fill="#CC9964" fill-rule="nonzero"></path>
                <path d="M15.7542,15.2446 C17.1213,15.2446 17.2942,15.2313 17.388,15.1221 C17.4762,15.0262 17.4972,14.7721 17.5175,13.6388 C17.5448,12.04 17.5924,11.8825 18.1601,11.4996 C18.4744,11.2812 18.522,11.2672 18.9728,11.2945 C19.4992,11.3225 19.7589,11.452 20.0662,11.8545 C20.3056,12.1688 20.3742,12.6336 20.3742,13.9181 C20.3742,14.8344 20.3945,15.0458 20.4834,15.1347 C20.6409,15.2985 23.5242,15.2985 23.6817,15.1347 C23.7776,15.0388 23.7909,14.7315 23.7776,12.4901 L23.7566,9.9547 L23.5725,9.8525 C23.4017,9.7566 23.3744,9.7566 23.1966,9.8861 L23.0048,10.0261 L22.9845,12.2269 L22.9712,14.4207 L21.21,14.4207 L21.1827,13.2727 C21.1624,12.2129 21.1484,12.1037 20.9846,11.7551 C20.7312,11.2084 20.4309,10.9011 19.9115,10.6484 C19.5083,10.4503 19.3921,10.423 18.907,10.423 C18.5038,10.4293 18.277,10.4636 18.039,10.5728 C17.6155,10.7646 17.1234,11.2294 16.9043,11.6529 C16.7272,11.9812 16.7202,12.0491 16.6992,13.2041 L16.6719,14.4207 L14.9135,14.4207 L14.8932,12.2269 L14.8729,10.0331 L14.7091,9.9036 C14.504,9.7391 14.4221,9.7391 14.196,9.9169 L14.0189,10.0569 L14.0189,12.5034 C14.0189,14.595 14.0322,14.9639 14.1281,15.0934 C14.2303,15.2446 14.2576,15.2446 15.7542,15.2446 Z" id="Path" fill="#CC9964" fill-rule="nonzero"></path>
                <path d="M26.0806,17.4657 L25.9161,17.2949 L18.9595,17.3019 C15.0437,17.3019 11.9343,17.3292 11.8524,17.3635 C11.5514,17.486 11.5724,18.0054 11.8797,18.1216 C11.9749,18.1559 14.8043,18.1832 18.9798,18.1832 L25.9161,18.1832 L26.0806,18.0124 C26.1758,17.9235 26.2514,17.8024 26.2514,17.7394 C26.2514,17.6764 26.1758,17.5546 26.0806,17.4657 Z" id="Path" fill="#CC9964" fill-rule="nonzero"></path>
                <path d="M18.9392,21.0539 C22.7934,21.0539 25.9777,21.0266 26.019,20.9986 C26.196708,20.8781195 26.2605099,20.6463554 26.1695,20.4519 L26.0806,20.2678 L18.97,20.2475 C12.1499,20.2335 11.8559,20.2405 11.7467,20.3567 C11.5822,20.5345 11.6067,20.8215 11.7803,20.944 C11.914,21.0399 12.7064,21.0539 18.9392,21.0539 Z" id="Path" fill="#CC9964" fill-rule="nonzero"></path>
                <path d="M26.1422,23.3296 L25.998,23.1378 L18.9455,23.1175 C11.9749,23.1035 11.9,23.1035 11.7635,23.2407 C11.5927,23.4115 11.5857,23.6642 11.7495,23.8077 C11.8657,23.9169 12.4495,23.9239 18.9728,23.9099 L26.0736,23.8896 L26.1758,23.7055 C26.2717,23.534 26.2717,23.5067 26.1422,23.3296 Z" id="Path" fill="#CC9964" fill-rule="nonzero"></path>
                <path d="M26.019,27.1222 C25.9777,27.0949 24.8024,27.0676 23.4017,27.0676 C21.2282,27.0676 20.8453,27.0809 20.7571,27.1698 C20.5856,27.3406 20.5583,27.5387 20.6745,27.7235 L20.7907,27.8873 L23.4353,27.874 L26.0806,27.853 L26.1695,27.6689 C26.2601989,27.4744184 26.1964543,27.2428622 26.019,27.1222 Z" id="Path" fill="#CC9964" fill-rule="nonzero"></path>
                <rect id="Rectangle" x="0" y="0" width="35" height="35"></rect>
            </g>
        </g>
    </g>
</svg>