<?xml version="1.0" encoding="UTF-8"?>
<svg width="50px" height="50px" viewBox="0 0 50 50" version="1.1" xmlns="http://www.w3.org/2000/svg" xmlns:xlink="http://www.w3.org/1999/xlink">
    <title>Sin título-1-02</title>
    <g id="CONÓCENOS" stroke="none" stroke-width="1" fill="none" fill-rule="evenodd">
        <g id="Desktop-HD" transform="translate(-105.000000, -3416.000000)">
            <g id="Sin-título-1-02" transform="translate(105.000000, 3416.000000)">
                <path d="M12.986,13.724 L12.834,13.891 C12.686,14.068 12.675,14.997 12.675,27.759 L12.675,41.437 L13.062,41.823 L27.83,41.853 C36.366,41.864 42.73,41.853 42.962,41.825 C43.1319001,41.7901267 43.2901726,41.7127108 43.422,41.6 C43.575,41.447 43.575,40.156 43.575,27.809 L43.575,14.171 L43.228,13.724 L12.986,13.724 Z M42.425,22.3 L41.395,22.345 C40.571,22.376 40.516,22.411 40.387,22.569 C40.182,22.826 40.187,22.982 40.408,23.263 C40.561,23.463 40.57,23.476 41.408,23.476 L42.423,23.476 L42.423,32.025 L40.1,32.025 C38.112,32.025 37.94,32.038 37.788,32.189 C37.6624467,32.3274541 37.6026794,32.5133158 37.624,32.699 C37.6277803,32.8306124 37.688761,32.9540344 37.791,33.037 C37.953,33.148 38.41,33.175 40.12,33.175 L42.425,33.175 L42.425,40.725 L28.675,40.725 L28.675,33.175 L29.8,33.175 C30.661,33.175 30.779,33.145 30.912,33.012 C31.0232251,32.9050604 31.0818874,32.7546784 31.0724545,32.6006715 C31.0630216,32.4466647 30.9864448,32.304566 30.863,32.212 C30.638,32.039 30.458,32.028 27.65,32.028 C24.995,32.028 24.65,32.037 24.469,32.181 C24.3498667,32.2895773 24.2819751,32.4433113 24.2819751,32.6045 C24.2819751,32.7656887 24.3498667,32.9194227 24.469,33.028 C24.632,33.159 24.834,33.178 26.008,33.178 L27.523,33.178 L27.523,40.729 L20.68,40.7 L13.826,40.67 L13.8,36.919 L13.78,33.173 L17.64,33.173 C20.917,33.173 21.346,33.165 21.534,33.02 C21.7656473,32.784212 21.7629645,32.4054826 21.528,32.173 C21.346,32.032 20.917,32.023 17.64,32.023 L13.775,32.023 L13.775,25.074 L21.857,25.074 L22.057,24.862 C22.257,24.671 22.272,24.656 22.272,23.369 C22.272,21.76 22.153,21.694 21.697,21.694 C21.297,21.694 21.122,21.808 21.122,22.909 L21.122,23.924 L13.772,23.924 L13.772,14.874 L21.122,14.874 L21.122,15.689 C21.122,16.661 21.456,16.774 21.707,16.774 C22.09,16.774 22.272,16.62 22.272,15.749 L22.272,14.874 L33.422,14.874 L33.422,19.074 C33.422,22.874 33.431,23.115 33.59,23.29 C33.749,23.465 33.805,23.469 35.677,23.469 C37.972,23.469 37.972,23.391 37.972,22.964 C37.972,22.442 37.904,22.319 36.107,22.319 L34.575,22.319 L34.575,14.869 L42.425,14.869 L42.425,22.3 Z" id="Shape" fill="#CC9964" fill-rule="nonzero"></path>
                <path d="M22.063,18.607 C21.9653084,18.511205 21.8380741,18.4512886 21.702,18.437 C21.583,18.437 21.469,18.507 21.329,18.647 L21.329,18.647 C21.12,18.847 21.107,18.859 21.137,19.647 C21.178,20.626 21.3,20.667 21.762,20.667 C22.112,20.667 22.277,20.555 22.277,19.532 C22.275,18.775 22.255,18.759 22.063,18.607 Z" id="Path" fill="#CC9964" fill-rule="nonzero"></path>
                <path d="M34.68,32.023 C33.874,32.023 33.82,32.047 33.64,32.235 L33.64,32.235 C33.5212512,32.335226 33.4489315,32.4798654 33.44,32.635 C33.4481678,32.7718263 33.5130445,32.8990426 33.619,32.986 C33.781,33.14 33.891,33.172 34.694,33.172 C35.533,33.172 35.583,33.15 35.774,32.951 C35.954,32.78 35.974,32.703 35.941,32.541 C35.841,32.142 35.664,32.023 34.68,32.023 Z" id="Path" fill="#CC9964" fill-rule="nonzero"></path>
                <path d="M48.627,9.524 L8.275,9.524 L8.275,6.849 C8.275,6.643 8.275,6.449 8.275,6.272 C8.275,4.964 8.275,4.372 8.075,4.16 C7.93,4.017 7.623,4.022 7.115,4.03 L6.784,4.03 C6.129,4.03 5.326,4.095 4.993,4.176 C3.226,4.609 1.727,6.017 1.169,7.767 L0.925,8.528 L0.925,27.043 C0.925,41.824 0.925,41.824 1.446,42.852 C1.474,42.906 1.502,42.962 1.532,43.023 C1.919,43.806 2.899,44.835 3.672,45.269 C4.09201055,45.4855154 4.53426256,45.6558444 4.991,45.777 C5.691,45.962 6.022,45.977 10.86,45.977 L41.41,45.977 C48.194,45.977 48.748,45.977 48.91,45.814 C49.072,45.651 49.073,44.3 49.073,27.763 L49.073,9.87 L48.627,9.524 Z M2.107,8.73 C2.352,6.747 4.185,5.184 6.28,5.174 L7.125,5.174 L7.125,35.085 L6.179,35.153 C4.811,35.261 3.849,35.632 2.859,36.435 L2.1,37.062 L2.059,23.069 C2.038,16.4 2.05,9.106 2.107,8.73 Z M38.169,44.823 L10.82,44.823 C5.269,44.823 5.145,44.813 4.187,44.246 C3.707,43.971 2.927,43.186 2.613,42.663 C1.94,41.514 1.907,39.956 2.528,38.693 C3.343,37.042 4.755,36.273 6.97,36.273 C7.12936677,36.2752055 7.28839961,36.2882355 7.446,36.312 C7.693,36.344 7.826,36.357 7.918,36.276 C8.292,35.947 8.289,34.003 8.279,27.562 C8.279,26.346 8.279,24.962 8.279,23.399 L8.279,10.674 L28.134,10.694 L47.979,10.724 L48.009,27.778 L48.029,44.823 L38.169,44.823 Z" id="Shape" fill="#CC9964" fill-rule="nonzero"></path>
                <rect id="Rectangle" x="0" y="0" width="50" height="50"></rect>
            </g>
        </g>
    </g>
</svg>